<svg xmlns="http://www.w3.org/2000/svg" viewBox="0 0 34.5126755404 8">
    <svg xmlns="http://www.w3.org/2000/svg" width="8" height="8" fill="currentColor"
        class="bi bi-globe2" viewBox="0 0 16 16">
                <g fill="#00d3f2">
            <path
                d="M0 8a8 8 0 1 1 16 0A8 8 0 0 1 0 8m7.5-6.923c-.67.204-1.335.82-1.887 1.855q-.215.403-.395.872c.705.157 1.472.257 2.282.287zM4.249 3.539q.214-.577.481-1.078a7 7 0 0 1 .597-.933A7 7 0 0 0 3.051 3.05q.544.277 1.198.49zM3.509 7.5c.036-1.07.188-2.087.436-3.008a9 9 0 0 1-1.565-.667A6.96 6.96 0 0 0 1.018 7.5zm1.4-2.741a12.3 12.3 0 0 0-.4 2.741H7.5V5.091c-.91-.03-1.783-.145-2.591-.332M8.5 5.09V7.5h2.99a12.3 12.3 0 0 0-.399-2.741c-.808.187-1.681.301-2.591.332zM4.51 8.5c.035.987.176 1.914.399 2.741A13.6 13.6 0 0 1 7.5 10.91V8.5zm3.99 0v2.409c.91.03 1.783.145 2.591.332.223-.827.364-1.754.4-2.741zm-3.282 3.696q.18.469.395.872c.552 1.035 1.218 1.65 1.887 1.855V11.91c-.81.03-1.577.13-2.282.287zm.11 2.276a7 7 0 0 1-.598-.933 9 9 0 0 1-.481-1.079 8.4 8.4 0 0 0-1.198.49 7 7 0 0 0 2.276 1.522zm-1.383-2.964A13.4 13.4 0 0 1 3.508 8.5h-2.49a6.96 6.96 0 0 0 1.362 3.675c.47-.258.995-.482 1.565-.667m6.728 2.964a7 7 0 0 0 2.275-1.521 8.4 8.4 0 0 0-1.197-.49 9 9 0 0 1-.481 1.078 7 7 0 0 1-.597.933M8.5 11.909v3.014c.67-.204 1.335-.82 1.887-1.855q.216-.403.395-.872A12.6 12.6 0 0 0 8.5 11.91zm3.555-.401c.57.185 1.095.409 1.565.667A6.96 6.96 0 0 0 14.982 8.5h-2.49a13.4 13.4 0 0 1-.437 3.008M14.982 7.5a6.96 6.96 0 0 0-1.362-3.675c-.47.258-.995.482-1.565.667.248.92.4 1.938.437 3.008zM11.27 2.461q.266.502.482 1.078a8.4 8.4 0 0 0 1.196-.49 7 7 0 0 0-2.275-1.52c.218.283.418.597.597.932m-.488 1.343a8 8 0 0 0-.395-.872C9.835 1.897 9.17 1.282 8.5 1.077V4.09c.81-.03 1.577-.13 2.282-.287z" />
        </g>
    </svg>


    <svg xmlns="http://www.w3.org/2000/svg" x="9" y="1" width="17.2394366196" height="6"
        viewBox="0 11.75 102 35.5" data-asc="0.935">
        <defs />
        <g fill="#ffffff">
            <g transform="translate(0, 0)">
                <path
                    d="M1.25 46.75Q0.70 46.75 0.35 46.40Q0 46.05 0 45.50L0 13Q0 12.45 0.35 12.10Q0.70 11.75 1.25 11.75L5.80 11.75Q6.55 11.75 6.90 12.10Q7.25 12.45 7.35 12.65L20.70 33.50L20.70 13Q20.70 12.45 21.05 12.10Q21.40 11.75 21.90 11.75L27.00 11.75Q27.55 11.75 27.90 12.10Q28.25 12.45 28.25 13L28.25 45.50Q28.25 46 27.90 46.38Q27.55 46.75 27.00 46.75L22.40 46.75Q21.65 46.75 21.33 46.38Q21.00 46 20.85 45.85L7.55 25.65L7.55 45.50Q7.55 46.05 7.20 46.40Q6.85 46.75 6.30 46.75L1.25 46.75ZM47 47.25Q42.85 47.25 40.05 45.88Q37.25 44.50 35.77 41.95Q34.30 39.40 34.15 36Q34.10 35 34.10 33.73Q34.10 32.45 34.15 31.50Q34.30 28.05 35.85 25.52Q37.40 23 40.20 21.63Q43 20.25 47 20.25Q50.95 20.25 53.75 21.63Q56.55 23 58.10 25.52Q59.65 28.05 59.80 31.50Q59.90 32.45 59.90 33.73Q59.90 35 59.80 36Q59.65 39.40 58.17 41.95Q56.70 44.50 53.90 45.88Q51.10 47.25 47 47.25M47 41.75Q49.45 41.75 50.70 40.23Q51.95 38.70 52.05 35.75Q52.10 35 52.10 33.75Q52.10 32.50 52.05 31.75Q51.95 28.85 50.70 27.30Q49.45 25.75 47 25.75Q44.55 25.75 43.27 27.30Q42 28.85 41.90 31.75Q41.85 32.50 41.85 33.75Q41.85 35 41.90 35.75Q42 38.70 43.27 40.23Q44.55 41.75 47 41.75ZM72.30 46.75Q71.60 46.75 71.22 46.40Q70.85 46.05 70.65 45.50L63.50 22.35Q63.40 22.10 63.40 21.85Q63.40 21.40 63.73 21.07Q64.05 20.75 64.50 20.75L68.90 20.75Q69.55 20.75 69.90 21.10Q70.25 21.45 70.35 21.75L74.90 37.20L79.75 21.85Q79.85 21.50 80.22 21.13Q80.60 20.75 81.30 20.75L84.15 20.75Q84.85 20.75 85.22 21.13Q85.60 21.50 85.70 21.85L90.55 37.20L95.10 21.75Q95.15 21.45 95.53 21.10Q95.90 20.75 96.50 20.75L100.90 20.75Q101.35 20.75 101.68 21.07Q102 21.40 102 21.85Q102 22.10 101.95 22.35L94.75 45.50Q94.60 46.05 94.22 46.40Q93.85 46.75 93.15 46.75L89.30 46.75Q88.60 46.75 88.20 46.40Q87.80 46.05 87.60 45.50L82.75 30.70L77.80 45.50Q77.65 46.05 77.25 46.40Q76.85 46.75 76.15 46.75L72.30 46.75Z" />
            </g>
        </g>
    </svg>

    <svg xmlns="http://www.w3.org/2000/svg" x="9" y="1" width="25.5126755404" height="6"
        viewBox="0 11.75 150.9499969482422 35.5" data-asc="0.935">
        <defs />
        <g fill="#00d3f2">
            <g transform="translate(0, 0)">
                <path
                    d="M108.40 46.75Q107.85 46.75 107.50 46.40Q107.15 46.05 107.15 45.50L107.15 13Q107.15 12.45 107.50 12.10Q107.85 11.75 108.40 11.75L114.05 11.75Q114.60 11.75 114.95 12.10Q115.30 12.45 115.30 13L115.30 45.50Q115.30 46.05 114.95 46.40Q114.60 46.75 114.05 46.75L108.40 46.75ZM123.95 46.75Q123.40 46.75 123.05 46.40Q122.70 46.05 122.70 45.50L122.70 13Q122.70 12.45 123.05 12.10Q123.40 11.75 123.95 11.75L137.60 11.75Q141.65 11.75 144.63 13Q147.60 14.25 149.28 16.77Q150.95 19.30 150.95 23.05Q150.95 26.85 149.28 29.32Q147.60 31.80 144.63 33Q141.65 34.20 137.60 34.20L130.90 34.20L130.90 45.50Q130.90 46.05 130.55 46.40Q130.20 46.75 129.65 46.75L123.95 46.75M130.75 28L137.35 28Q139.90 28 141.32 26.75Q142.75 25.50 142.75 23Q142.75 20.80 141.47 19.40Q140.20 18 137.35 18L130.75 18L130.75 28Z" />
            </g>
        </g>
    </svg>

</svg>